<mxfile host="app.diagrams.net" modified="2021-09-27T07:39:12.258Z" agent="5.0 (X11; Linux x86_64) AppleWebKit/537.36 (KHTML, like Gecko) Chrome/95.0.4638.17 Safari/537.36 Edg/95.0.1020.5" etag="YjDAxZDpAGuWosIrMn2o" version="15.3.1" type="github" pages="3">
  <diagram id="FhTYQCDuugWsy-3RP2ZN" name="Page-1">
    <mxGraphModel dx="1422" dy="781" grid="1" gridSize="10" guides="1" tooltips="1" connect="1" arrows="1" fold="1" page="1" pageScale="1" pageWidth="827" pageHeight="1169" math="0" shadow="0">
      <root>
        <mxCell id="0" />
        <mxCell id="1" parent="0" />
        <mxCell id="f6B9oks6x_Fg4kV57822-1" value="Person" style="swimlane;fontStyle=1;align=center;verticalAlign=top;childLayout=stackLayout;horizontal=1;startSize=26;horizontalStack=0;resizeParent=1;resizeParentMax=0;resizeLast=0;collapsible=1;marginBottom=0;" parent="1" vertex="1">
          <mxGeometry x="320" y="90" width="220" height="160" as="geometry" />
        </mxCell>
        <mxCell id="f6B9oks6x_Fg4kV57822-2" value="&lt;property&gt;&#xa;+ name: str&#xa;&lt;property&gt;&#xa;+ age: int" style="text;strokeColor=none;fillColor=none;align=left;verticalAlign=top;spacingLeft=4;spacingRight=4;overflow=hidden;rotatable=0;points=[[0,0.5],[1,0.5]];portConstraint=eastwest;" parent="f6B9oks6x_Fg4kV57822-1" vertex="1">
          <mxGeometry y="26" width="220" height="74" as="geometry" />
        </mxCell>
        <mxCell id="f6B9oks6x_Fg4kV57822-3" value="" style="line;strokeWidth=1;fillColor=none;align=left;verticalAlign=middle;spacingTop=-1;spacingLeft=3;spacingRight=3;rotatable=0;labelPosition=right;points=[];portConstraint=eastwest;" parent="f6B9oks6x_Fg4kV57822-1" vertex="1">
          <mxGeometry y="100" width="220" height="8" as="geometry" />
        </mxCell>
        <mxCell id="f6B9oks6x_Fg4kV57822-4" value="+ __init__(name: str, age: int): None&#xa;+ say_hi(): None" style="text;strokeColor=none;fillColor=none;align=left;verticalAlign=top;spacingLeft=4;spacingRight=4;overflow=hidden;rotatable=0;points=[[0,0.5],[1,0.5]];portConstraint=eastwest;" parent="f6B9oks6x_Fg4kV57822-1" vertex="1">
          <mxGeometry y="108" width="220" height="52" as="geometry" />
        </mxCell>
        <mxCell id="f6B9oks6x_Fg4kV57822-5" value="Student" style="swimlane;fontStyle=1;align=center;verticalAlign=top;childLayout=stackLayout;horizontal=1;startSize=26;horizontalStack=0;resizeParent=1;resizeParentMax=0;resizeLast=0;collapsible=1;marginBottom=0;" parent="1" vertex="1">
          <mxGeometry x="90" y="340" width="286" height="100" as="geometry" />
        </mxCell>
        <mxCell id="f6B9oks6x_Fg4kV57822-6" value="+ language: str" style="text;strokeColor=none;fillColor=none;align=left;verticalAlign=top;spacingLeft=4;spacingRight=4;overflow=hidden;rotatable=0;points=[[0,0.5],[1,0.5]];portConstraint=eastwest;" parent="f6B9oks6x_Fg4kV57822-5" vertex="1">
          <mxGeometry y="26" width="286" height="24" as="geometry" />
        </mxCell>
        <mxCell id="f6B9oks6x_Fg4kV57822-7" value="" style="line;strokeWidth=1;fillColor=none;align=left;verticalAlign=middle;spacingTop=-1;spacingLeft=3;spacingRight=3;rotatable=0;labelPosition=right;points=[];portConstraint=eastwest;" parent="f6B9oks6x_Fg4kV57822-5" vertex="1">
          <mxGeometry y="50" width="286" height="8" as="geometry" />
        </mxCell>
        <mxCell id="f6B9oks6x_Fg4kV57822-8" value="+ __init__(name: str, age: int, language: str): None&#xa;+ say_hi(): None" style="text;strokeColor=none;fillColor=none;align=left;verticalAlign=top;spacingLeft=4;spacingRight=4;overflow=hidden;rotatable=0;points=[[0,0.5],[1,0.5]];portConstraint=eastwest;" parent="f6B9oks6x_Fg4kV57822-5" vertex="1">
          <mxGeometry y="58" width="286" height="42" as="geometry" />
        </mxCell>
        <mxCell id="f6B9oks6x_Fg4kV57822-9" value="Extends" style="endArrow=block;endSize=16;endFill=0;html=1;exitX=0.5;exitY=0;exitDx=0;exitDy=0;entryX=0.473;entryY=1.038;entryDx=0;entryDy=0;entryPerimeter=0;" parent="1" source="f6B9oks6x_Fg4kV57822-5" target="f6B9oks6x_Fg4kV57822-4" edge="1">
          <mxGeometry width="160" relative="1" as="geometry">
            <mxPoint x="330" y="590" as="sourcePoint" />
            <mxPoint x="490" y="590" as="targetPoint" />
          </mxGeometry>
        </mxCell>
        <mxCell id="f6B9oks6x_Fg4kV57822-10" value="Viking" style="swimlane;fontStyle=1;align=center;verticalAlign=top;childLayout=stackLayout;horizontal=1;startSize=26;horizontalStack=0;resizeParent=1;resizeParentMax=0;resizeLast=0;collapsible=1;marginBottom=0;" parent="1" vertex="1">
          <mxGeometry x="470" y="340" width="280" height="100" as="geometry" />
        </mxCell>
        <mxCell id="f6B9oks6x_Fg4kV57822-11" value="+ stash: int" style="text;strokeColor=none;fillColor=none;align=left;verticalAlign=top;spacingLeft=4;spacingRight=4;overflow=hidden;rotatable=0;points=[[0,0.5],[1,0.5]];portConstraint=eastwest;" parent="f6B9oks6x_Fg4kV57822-10" vertex="1">
          <mxGeometry y="26" width="280" height="26" as="geometry" />
        </mxCell>
        <mxCell id="f6B9oks6x_Fg4kV57822-12" value="" style="line;strokeWidth=1;fillColor=none;align=left;verticalAlign=middle;spacingTop=-1;spacingLeft=3;spacingRight=3;rotatable=0;labelPosition=right;points=[];portConstraint=eastwest;" parent="f6B9oks6x_Fg4kV57822-10" vertex="1">
          <mxGeometry y="52" width="280" height="8" as="geometry" />
        </mxCell>
        <mxCell id="f6B9oks6x_Fg4kV57822-13" value="+ __init__(name: str, age: int): None&#xa;+ say_hi(): None" style="text;strokeColor=none;fillColor=none;align=left;verticalAlign=top;spacingLeft=4;spacingRight=4;overflow=hidden;rotatable=0;points=[[0,0.5],[1,0.5]];portConstraint=eastwest;" parent="f6B9oks6x_Fg4kV57822-10" vertex="1">
          <mxGeometry y="60" width="280" height="40" as="geometry" />
        </mxCell>
        <mxCell id="f6B9oks6x_Fg4kV57822-24" value="Extends" style="endArrow=block;endSize=16;endFill=0;html=1;exitX=0.5;exitY=0;exitDx=0;exitDy=0;entryX=0.509;entryY=1.058;entryDx=0;entryDy=0;entryPerimeter=0;" parent="1" source="f6B9oks6x_Fg4kV57822-10" target="f6B9oks6x_Fg4kV57822-4" edge="1">
          <mxGeometry width="160" relative="1" as="geometry">
            <mxPoint x="330" y="660" as="sourcePoint" />
            <mxPoint x="490" y="660" as="targetPoint" />
          </mxGeometry>
        </mxCell>
        <mxCell id="f6B9oks6x_Fg4kV57822-25" value="1" style="endArrow=open;html=1;endSize=12;startArrow=diamondThin;startSize=14;startFill=1;edgeStyle=orthogonalEdgeStyle;align=left;verticalAlign=bottom;exitX=0.586;exitY=1;exitDx=0;exitDy=0;exitPerimeter=0;" parent="1" source="f6B9oks6x_Fg4kV57822-13" target="f6B9oks6x_Fg4kV57822-26" edge="1">
          <mxGeometry x="-1" y="3" relative="1" as="geometry">
            <mxPoint x="330" y="660" as="sourcePoint" />
            <mxPoint x="634" y="920" as="targetPoint" />
          </mxGeometry>
        </mxCell>
        <mxCell id="f6B9oks6x_Fg4kV57822-26" value="OldCoinStash" style="swimlane;fontStyle=1;align=center;verticalAlign=top;childLayout=stackLayout;horizontal=1;startSize=26;horizontalStack=0;resizeParent=1;resizeParentMax=0;resizeLast=0;collapsible=1;marginBottom=0;" parent="1" vertex="1">
          <mxGeometry x="480" y="490" width="310" height="86" as="geometry" />
        </mxCell>
        <mxCell id="f6B9oks6x_Fg4kV57822-27" value="+ field: type" style="text;strokeColor=none;fillColor=none;align=left;verticalAlign=top;spacingLeft=4;spacingRight=4;overflow=hidden;rotatable=0;points=[[0,0.5],[1,0.5]];portConstraint=eastwest;" parent="f6B9oks6x_Fg4kV57822-26" vertex="1">
          <mxGeometry y="26" width="310" height="26" as="geometry" />
        </mxCell>
        <mxCell id="f6B9oks6x_Fg4kV57822-28" value="" style="line;strokeWidth=1;fillColor=none;align=left;verticalAlign=middle;spacingTop=-1;spacingLeft=3;spacingRight=3;rotatable=0;labelPosition=right;points=[];portConstraint=eastwest;" parent="f6B9oks6x_Fg4kV57822-26" vertex="1">
          <mxGeometry y="52" width="310" height="8" as="geometry" />
        </mxCell>
        <mxCell id="f6B9oks6x_Fg4kV57822-29" value="+ method(type): type" style="text;strokeColor=none;fillColor=none;align=left;verticalAlign=top;spacingLeft=4;spacingRight=4;overflow=hidden;rotatable=0;points=[[0,0.5],[1,0.5]];portConstraint=eastwest;" parent="f6B9oks6x_Fg4kV57822-26" vertex="1">
          <mxGeometry y="60" width="310" height="26" as="geometry" />
        </mxCell>
      </root>
    </mxGraphModel>
  </diagram>
  <diagram id="fq6BGut_ODYhfXEOkcmJ" name="Page-2">
    <mxGraphModel dx="1422" dy="781" grid="1" gridSize="10" guides="1" tooltips="1" connect="1" arrows="1" fold="1" page="1" pageScale="1" pageWidth="827" pageHeight="1169" math="0" shadow="0">
      <root>
        <mxCell id="0zRSgHNLEObrZ6vA3KWp-0" />
        <mxCell id="0zRSgHNLEObrZ6vA3KWp-1" parent="0zRSgHNLEObrZ6vA3KWp-0" />
        <mxCell id="0zRSgHNLEObrZ6vA3KWp-2" value="Klassrum" style="html=1;" parent="0zRSgHNLEObrZ6vA3KWp-1" vertex="1">
          <mxGeometry x="359" y="130" width="110" height="50" as="geometry" />
        </mxCell>
        <mxCell id="0zRSgHNLEObrZ6vA3KWp-3" value="Studenter" style="html=1;" parent="0zRSgHNLEObrZ6vA3KWp-1" vertex="1">
          <mxGeometry x="359" y="280" width="110" height="50" as="geometry" />
        </mxCell>
        <mxCell id="0zRSgHNLEObrZ6vA3KWp-4" value="LÃ¤rare" style="html=1;" parent="0zRSgHNLEObrZ6vA3KWp-1" vertex="1">
          <mxGeometry x="170" y="280" width="110" height="50" as="geometry" />
        </mxCell>
        <mxCell id="0zRSgHNLEObrZ6vA3KWp-5" value="Object" style="html=1;" parent="0zRSgHNLEObrZ6vA3KWp-1" vertex="1">
          <mxGeometry x="560" y="280" width="110" height="50" as="geometry" />
        </mxCell>
        <mxCell id="0zRSgHNLEObrZ6vA3KWp-6" value="(1, )" style="endArrow=open;html=1;endSize=12;startArrow=diamondThin;startSize=14;startFill=1;edgeStyle=orthogonalEdgeStyle;align=left;verticalAlign=bottom;exitX=0.25;exitY=1;exitDx=0;exitDy=0;entryX=0.5;entryY=0;entryDx=0;entryDy=0;" parent="0zRSgHNLEObrZ6vA3KWp-1" source="0zRSgHNLEObrZ6vA3KWp-2" target="0zRSgHNLEObrZ6vA3KWp-4" edge="1">
          <mxGeometry x="-1" y="3" relative="1" as="geometry">
            <mxPoint x="330" y="400" as="sourcePoint" />
            <mxPoint x="490" y="400" as="targetPoint" />
          </mxGeometry>
        </mxCell>
        <mxCell id="0zRSgHNLEObrZ6vA3KWp-10" value="1" style="endArrow=open;html=1;endSize=12;startArrow=diamondThin;startSize=14;startFill=1;edgeStyle=orthogonalEdgeStyle;align=left;verticalAlign=bottom;entryX=0.5;entryY=0;entryDx=0;entryDy=0;" parent="0zRSgHNLEObrZ6vA3KWp-1" target="0zRSgHNLEObrZ6vA3KWp-3" edge="1">
          <mxGeometry x="-1" y="3" relative="1" as="geometry">
            <mxPoint x="442" y="180" as="sourcePoint" />
            <mxPoint x="490" y="400" as="targetPoint" />
          </mxGeometry>
        </mxCell>
      </root>
    </mxGraphModel>
  </diagram>
  <diagram id="W8uXWE_cCS81SIj3CQO4" name="Page-3">
    <mxGraphModel dx="1422" dy="781" grid="1" gridSize="10" guides="1" tooltips="1" connect="1" arrows="1" fold="1" page="1" pageScale="1" pageWidth="827" pageHeight="1169" math="0" shadow="0">
      <root>
        <mxCell id="jqZFZ16HeKxq4wg58beZ-0" />
        <mxCell id="jqZFZ16HeKxq4wg58beZ-1" parent="jqZFZ16HeKxq4wg58beZ-0" />
        <mxCell id="jqZFZ16HeKxq4wg58beZ-2" value="Block" style="swimlane;fontStyle=1;align=center;verticalAlign=top;childLayout=stackLayout;horizontal=1;startSize=26;horizontalStack=0;resizeParent=1;resizeParentMax=0;resizeLast=0;collapsible=1;marginBottom=0;" vertex="1" parent="jqZFZ16HeKxq4wg58beZ-1">
          <mxGeometry x="310" y="30" width="160" height="130" as="geometry" />
        </mxCell>
        <mxCell id="jqZFZ16HeKxq4wg58beZ-3" value="+ coordinates: tuple" style="text;strokeColor=none;fillColor=none;align=left;verticalAlign=top;spacingLeft=4;spacingRight=4;overflow=hidden;rotatable=0;points=[[0,0.5],[1,0.5]];portConstraint=eastwest;" vertex="1" parent="jqZFZ16HeKxq4wg58beZ-2">
          <mxGeometry y="26" width="160" height="26" as="geometry" />
        </mxCell>
        <mxCell id="jqZFZ16HeKxq4wg58beZ-4" value="" style="line;strokeWidth=1;fillColor=none;align=left;verticalAlign=middle;spacingTop=-1;spacingLeft=3;spacingRight=3;rotatable=0;labelPosition=right;points=[];portConstraint=eastwest;" vertex="1" parent="jqZFZ16HeKxq4wg58beZ-2">
          <mxGeometry y="52" width="160" height="8" as="geometry" />
        </mxCell>
        <mxCell id="jqZFZ16HeKxq4wg58beZ-5" value="+ left():&#xa;+ right():&#xa;+ rotate():&#xa;+ down()" style="text;strokeColor=none;fillColor=none;align=left;verticalAlign=top;spacingLeft=4;spacingRight=4;overflow=hidden;rotatable=0;points=[[0,0.5],[1,0.5]];portConstraint=eastwest;" vertex="1" parent="jqZFZ16HeKxq4wg58beZ-2">
          <mxGeometry y="60" width="160" height="70" as="geometry" />
        </mxCell>
        <mxCell id="jqZFZ16HeKxq4wg58beZ-6" value="Tetris-exempel" style="html=1;" vertex="1" parent="jqZFZ16HeKxq4wg58beZ-1">
          <mxGeometry x="40" y="30" width="110" height="50" as="geometry" />
        </mxCell>
        <mxCell id="jqZFZ16HeKxq4wg58beZ-11" value="Z-block" style="html=1;" vertex="1" parent="jqZFZ16HeKxq4wg58beZ-1">
          <mxGeometry x="40" y="240" width="80" height="30" as="geometry" />
        </mxCell>
        <mxCell id="jqZFZ16HeKxq4wg58beZ-12" value="T&lt;span style=&quot;color: rgba(0 , 0 , 0 , 0) ; font-family: monospace ; font-size: 0px&quot;&gt;%3CmxGraphModel%3E%3Croot%3E%3CmxCell%20id%3D%220%22%2F%3E%3CmxCell%20id%3D%221%22%20parent%3D%220%22%2F%3E%3CmxCell%20id%3D%222%22%20value%3D%22Z-block%22%20style%3D%22html%3D1%3B%22%20vertex%3D%221%22%20parent%3D%221%22%3E%3CmxGeometry%20x%3D%2240%22%20y%3D%22240%22%20width%3D%2280%22%20height%3D%2230%22%20as%3D%22geometry%22%2F%3E%3C%2FmxCell%3E%3C%2Froot%3E%3C%2FmxGraphModel%3E&lt;/span&gt;-block" style="html=1;" vertex="1" parent="jqZFZ16HeKxq4wg58beZ-1">
          <mxGeometry x="150" y="240" width="80" height="30" as="geometry" />
        </mxCell>
        <mxCell id="jqZFZ16HeKxq4wg58beZ-13" value="I&lt;span style=&quot;color: rgba(0 , 0 , 0 , 0) ; font-family: monospace ; font-size: 0px&quot;&gt;%3CmxGraphModel%3E%3Croot%3E%3CmxCell%20id%3D%220%22%2F%3E%3CmxCell%20id%3D%221%22%20parent%3D%220%22%2F%3E%3CmxCell%20id%3D%222%22%20value%3D%22Z-block%22%20style%3D%22html%3D1%3B%22%20vertex%3D%221%22%20parent%3D%221%22%3E%3CmxGeometry%20x%3D%2240%22%20y%3D%22240%22%20width%3D%2280%22%20height%3D%2230%22%20as%3D%22geometry%22%2F%3E%3C%2FmxCell%3E%3C%2Froot%3E%3C%2FmxGraphModel%3E&lt;/span&gt;-block" style="html=1;" vertex="1" parent="jqZFZ16HeKxq4wg58beZ-1">
          <mxGeometry x="250" y="240" width="80" height="30" as="geometry" />
        </mxCell>
        <mxCell id="jqZFZ16HeKxq4wg58beZ-14" value="L&lt;span style=&quot;color: rgba(0 , 0 , 0 , 0) ; font-family: monospace ; font-size: 0px&quot;&gt;%3CmxGraphModel%3E%3Croot%3E%3CmxCell%20id%3D%220%22%2F%3E%3CmxCell%20id%3D%221%22%20parent%3D%220%22%2F%3E%3CmxCell%20id%3D%222%22%20value%3D%22Z-block%22%20style%3D%22html%3D1%3B%22%20vertex%3D%221%22%20parent%3D%221%22%3E%3CmxGeometry%20x%3D%2240%22%20y%3D%22240%22%20width%3D%2280%22%20height%3D%2230%22%20as%3D%22geometry%22%2F%3E%3C%2FmxCell%3E%3C%2Froot%3E%3C%2FmxGraphModel%3E&lt;/span&gt;-block" style="html=1;" vertex="1" parent="jqZFZ16HeKxq4wg58beZ-1">
          <mxGeometry x="360" y="240" width="80" height="30" as="geometry" />
        </mxCell>
        <mxCell id="jqZFZ16HeKxq4wg58beZ-15" value="Extends" style="endArrow=block;endSize=16;endFill=0;html=1;exitX=0.5;exitY=0;exitDx=0;exitDy=0;entryX=0.525;entryY=1.014;entryDx=0;entryDy=0;entryPerimeter=0;" edge="1" parent="jqZFZ16HeKxq4wg58beZ-1" source="jqZFZ16HeKxq4wg58beZ-14" target="jqZFZ16HeKxq4wg58beZ-5">
          <mxGeometry width="160" relative="1" as="geometry">
            <mxPoint x="400" y="210" as="sourcePoint" />
            <mxPoint x="560" y="210" as="targetPoint" />
            <Array as="points" />
          </mxGeometry>
        </mxCell>
        <mxCell id="jqZFZ16HeKxq4wg58beZ-16" value="Extends" style="endArrow=block;endSize=16;endFill=0;html=1;exitX=0.5;exitY=0;exitDx=0;exitDy=0;entryX=0.369;entryY=1.071;entryDx=0;entryDy=0;entryPerimeter=0;" edge="1" parent="jqZFZ16HeKxq4wg58beZ-1" source="jqZFZ16HeKxq4wg58beZ-13" target="jqZFZ16HeKxq4wg58beZ-5">
          <mxGeometry width="160" relative="1" as="geometry">
            <mxPoint x="334" y="210" as="sourcePoint" />
            <mxPoint x="494" y="210" as="targetPoint" />
          </mxGeometry>
        </mxCell>
        <mxCell id="jqZFZ16HeKxq4wg58beZ-17" value="Extends" style="endArrow=block;endSize=16;endFill=0;html=1;exitX=0.5;exitY=0;exitDx=0;exitDy=0;entryX=0.225;entryY=1.043;entryDx=0;entryDy=0;entryPerimeter=0;" edge="1" parent="jqZFZ16HeKxq4wg58beZ-1" source="jqZFZ16HeKxq4wg58beZ-12" target="jqZFZ16HeKxq4wg58beZ-5">
          <mxGeometry width="160" relative="1" as="geometry">
            <mxPoint x="240" y="210" as="sourcePoint" />
            <mxPoint x="400" y="210" as="targetPoint" />
          </mxGeometry>
        </mxCell>
        <mxCell id="jqZFZ16HeKxq4wg58beZ-18" value="Extends" style="endArrow=block;endSize=16;endFill=0;html=1;exitX=0.5;exitY=0;exitDx=0;exitDy=0;entryX=0.019;entryY=1.014;entryDx=0;entryDy=0;entryPerimeter=0;" edge="1" parent="jqZFZ16HeKxq4wg58beZ-1" source="jqZFZ16HeKxq4wg58beZ-11" target="jqZFZ16HeKxq4wg58beZ-5">
          <mxGeometry width="160" relative="1" as="geometry">
            <mxPoint x="90" y="190" as="sourcePoint" />
            <mxPoint x="250" y="190" as="targetPoint" />
          </mxGeometry>
        </mxCell>
        <mxCell id="jqZFZ16HeKxq4wg58beZ-19" value="Board" style="swimlane;fontStyle=1;align=center;verticalAlign=top;childLayout=stackLayout;horizontal=1;startSize=26;horizontalStack=0;resizeParent=1;resizeParentMax=0;resizeLast=0;collapsible=1;marginBottom=0;" vertex="1" parent="jqZFZ16HeKxq4wg58beZ-1">
          <mxGeometry x="560" y="30" width="160" height="140" as="geometry" />
        </mxCell>
        <mxCell id="jqZFZ16HeKxq4wg58beZ-20" value="+ None" style="text;strokeColor=none;fillColor=none;align=left;verticalAlign=top;spacingLeft=4;spacingRight=4;overflow=hidden;rotatable=0;points=[[0,0.5],[1,0.5]];portConstraint=eastwest;" vertex="1" parent="jqZFZ16HeKxq4wg58beZ-19">
          <mxGeometry y="26" width="160" height="34" as="geometry" />
        </mxCell>
        <mxCell id="jqZFZ16HeKxq4wg58beZ-21" value="" style="line;strokeWidth=1;fillColor=none;align=left;verticalAlign=middle;spacingTop=-1;spacingLeft=3;spacingRight=3;rotatable=0;labelPosition=right;points=[];portConstraint=eastwest;" vertex="1" parent="jqZFZ16HeKxq4wg58beZ-19">
          <mxGeometry y="60" width="160" height="8" as="geometry" />
        </mxCell>
        <mxCell id="jqZFZ16HeKxq4wg58beZ-22" value="rand_block()&#xa;check_coords()&#xa;check_full_lines()&#xa;..." style="text;strokeColor=none;fillColor=none;align=left;verticalAlign=top;spacingLeft=4;spacingRight=4;overflow=hidden;rotatable=0;points=[[0,0.5],[1,0.5]];portConstraint=eastwest;" vertex="1" parent="jqZFZ16HeKxq4wg58beZ-19">
          <mxGeometry y="68" width="160" height="72" as="geometry" />
        </mxCell>
        <mxCell id="jqZFZ16HeKxq4wg58beZ-23" value="1" style="endArrow=open;html=1;endSize=12;startArrow=diamondThin;startSize=14;startFill=1;edgeStyle=orthogonalEdgeStyle;align=left;verticalAlign=bottom;exitX=0.525;exitY=1.042;exitDx=0;exitDy=0;exitPerimeter=0;entryX=0.6;entryY=0.967;entryDx=0;entryDy=0;entryPerimeter=0;" edge="1" parent="jqZFZ16HeKxq4wg58beZ-1" source="jqZFZ16HeKxq4wg58beZ-22" target="jqZFZ16HeKxq4wg58beZ-11">
          <mxGeometry x="-1" y="3" relative="1" as="geometry">
            <mxPoint x="330" y="400" as="sourcePoint" />
            <mxPoint x="90" y="340" as="targetPoint" />
            <Array as="points">
              <mxPoint x="644" y="350" />
              <mxPoint x="88" y="350" />
            </Array>
          </mxGeometry>
        </mxCell>
        <mxCell id="jqZFZ16HeKxq4wg58beZ-24" value="1" style="endArrow=open;html=1;endSize=12;startArrow=diamondThin;startSize=14;startFill=1;edgeStyle=orthogonalEdgeStyle;align=left;verticalAlign=bottom;entryX=1;entryY=0.5;entryDx=0;entryDy=0;" edge="1" parent="jqZFZ16HeKxq4wg58beZ-1" target="jqZFZ16HeKxq4wg58beZ-14">
          <mxGeometry x="-1" y="3" relative="1" as="geometry">
            <mxPoint x="560" y="110" as="sourcePoint" />
            <mxPoint x="490" y="400" as="targetPoint" />
          </mxGeometry>
        </mxCell>
      </root>
    </mxGraphModel>
  </diagram>
</mxfile>
